<?xml version="1.0" encoding="utf-8"?>
<!-- Generator: Adobe Illustrator 27.5.0, SVG Export Plug-In . SVG Version: 6.00 Build 0)  -->
<svg version="1.1" xmlns="http://www.w3.org/2000/svg" xmlns:xlink="http://www.w3.org/1999/xlink" x="0px" y="0px"
	 viewBox="0 0 900 600" style="enable-background:new 0 0 900 600;" xml:space="preserve">
<g id="Background">
	<rect style="fill:#141414;" width="900" height="600"/>
</g>
<g id="option">
	<g>
		<rect x="169.171" y="28.085" style="fill:none;" width="0" height="34.223"/>
		<rect x="169.171" y="147.039" style="fill:none;" width="0" height="34.224"/>
		<rect x="288.306" y="146.935" style="fill:none;" width="0" height="34.224"/>
		<polygon style="fill:#191919;" points="781.194,480.068 781.059,480.277 781.194,480.278 		"/>
		<polygon style="fill:#191919;" points="726.668,563.503 780.694,598.811 780.694,480.833 745.54,534.625 745.591,534.615 		"/>
		<polygon style="fill:#2C2C2C;" points="726.648,563.533 697.729,544.591 662.008,599.399 780.694,599.139 780.694,598.811 		"/>
		<polygon style="fill:#2C2C2C;" points="726.668,563.503 726.648,563.533 780.694,598.811 780.694,598.811 		"/>
		<polygon style="fill:#383838;" points="745.54,534.625 697.729,544.591 726.668,563.503 		"/>
		<polygon style="fill:#383838;" points="726.668,563.503 745.591,534.615 745.54,534.625 726.668,563.503 		"/>
		<polygon style="fill:#383838;" points="726.668,563.503 697.729,544.591 726.648,563.533 		"/>
		<polygon style="fill:#383838;" points="726.668,563.503 726.648,563.533 726.668,563.503 		"/>
		<polygon style="fill:#191919;" points="845.474,445.46 899.56,480.807 899.765,480.808 899.663,480.874 900,481.095 900,362.025 
			864.346,416.582 864.397,416.573 		"/>
		<polygon style="fill:#2C2C2C;" points="899.429,480.803 899.429,480.807 899.559,480.807 845.453,445.491 816.534,426.548 
			781.516,480.279 899.424,480.807 		"/>
		<polygon style="fill:#2C2C2C;" points="899.429,481.026 899.43,481.096 900,481.095 899.663,480.874 		"/>
		<polygon style="fill:#2C2C2C;" points="845.474,445.46 845.453,445.491 899.559,480.807 899.56,480.807 		"/>
		<polygon style="fill:#2C2C2C;" points="899.663,480.874 900,481.095 899.663,480.874 		"/>
		<polygon style="fill:#383838;" points="864.346,416.582 816.534,426.548 845.474,445.46 		"/>
		<polygon style="fill:#383838;" points="845.474,445.46 864.397,416.573 864.346,416.582 845.474,445.46 		"/>
		<polygon style="fill:#383838;" points="845.474,445.46 816.534,426.548 845.453,445.491 		"/>
		<polygon style="fill:#383838;" points="845.474,445.46 845.453,445.491 845.474,445.46 		"/>
		<polygon style="fill:#303030;" points="238.269,356.884 238.269,357.366 273.872,302.887 273.821,302.898 292.717,274.051 
			238.269,238.467 238.269,356.796 238.326,356.885 		"/>
		<polygon style="fill:#232323;" points="321.614,292.936 357.284,238.206 238.269,238.467 292.737,274.02 		"/>
		<polygon style="fill:#232323;" points="292.737,274.02 238.269,238.467 292.717,274.051 		"/>
		<polygon style="fill:#383838;" points="273.872,302.887 321.614,292.936 292.717,274.051 		"/>
		<polygon style="fill:#383838;" points="292.717,274.051 273.821,302.898 273.872,302.887 292.717,274.051 		"/>
		<polygon style="fill:#383838;" points="292.717,274.051 321.614,292.936 292.737,274.02 		"/>
		<polygon style="fill:#383838;" points="292.737,274.02 292.717,274.051 292.717,274.051 		"/>
		<polygon style="fill:#232323;" points="56.055,510.663 56.075,510.632 2.874,475.907 2.872,475.907 		"/>
		<g>
			<polygon style="fill:#303030;" points="54.448,510.663 1.266,475.907 0,475.906 0,593.979 35.604,539.499 35.553,539.51 			"/>
			<polygon style="fill:#232323;" points="117.327,475.573 117.586,475.969 117.328,475.969 117.329,476.116 117.232,475.968 
				1.268,475.907 54.469,510.632 83.346,529.548 119.016,474.819 117.325,474.823 			"/>
			<polygon style="fill:#383838;" points="35.604,539.499 83.346,529.548 54.448,510.663 			"/>
		</g>
		<polygon style="fill:#383838;" points="56.055,510.663 37.159,539.51 37.21,539.499 56.055,510.663 		"/>
		<polygon style="fill:#383838;" points="56.055,510.663 84.952,529.548 56.075,510.632 		"/>
		<polygon style="fill:#383838;" points="56.055,510.663 56.075,510.632 56.055,510.663 		"/>
		<polygon style="fill:#191919;" points="118.564,0.737 118.559,0.74 118.564,0.74 		"/>
		<polygon style="fill:#191919;" points="118.877,119.436 118.876,119.289 118.78,119.289 		"/>
		<polygon style="fill:#2C2C2C;" points="119.134,119.289 118.875,118.894 118.876,119.289 		"/>
		<polygon style="fill:#2C2C2C;" points="83.169,64.873 118.78,119.289 118.876,119.289 118.875,118.894 83.429,64.703 		"/>
		<polygon style="fill:#232323;" points="118.899,0.741 118.564,0.74 118.565,0.959 		"/>
		<polygon style="fill:#383838;" points="83.169,64.873 83.429,64.703 83.169,64.873 		"/>
		<g>
			<polygon style="fill:#191919;" points="83.429,64.494 118.875,118.685 118.564,0.75 64.587,35.729 			"/>
			<polygon style="fill:#303030;" points="54.503,83.398 35.588,54.522 0,0 0,118.851 0.253,118.852 			"/>
			<polygon style="fill:#2C2C2C;" points="54.522,83.429 0.254,118.852 42.257,119.039 118.78,119.08 83.169,64.664 			"/>
			<polygon style="fill:#2C2C2C;" points="54.522,83.429 54.503,83.398 0.253,118.852 0.254,118.852 			"/>
			<polygon style="fill:#232323;" points="64.339,35.891 64.329,35.876 118.559,0.531 0,0 35.619,54.503 			"/>
			<polygon style="fill:#232323;" points="64.339,35.891 64.587,35.729 64.587,35.729 118.564,0.75 118.563,0.531 118.559,0.531 
				64.329,35.876 			"/>
			<polygon style="fill:#232323;" points="35.619,54.503 0,0 35.588,54.522 			"/>
			<polygon style="fill:#383838;" points="64.339,35.891 35.619,54.503 54.503,83.398 83.169,64.664 			"/>
			<polygon style="fill:#383838;" points="83.169,64.664 83.429,64.494 64.587,35.729 64.339,35.891 			"/>
			<polygon style="fill:#383838;" points="35.619,54.503 35.588,54.522 54.503,83.398 54.503,83.398 			"/>
			<polygon style="fill:#383838;" points="54.503,83.398 54.522,83.429 83.169,64.664 83.169,64.664 			"/>
			<polygon style="fill:#383838;" points="54.503,83.398 54.503,83.398 54.522,83.429 			"/>
			<rect x="49.979" y="28.085" style="fill:#383838;" width="0" height="34.223"/>
			<rect x="64.463" y="35.662" style="fill:#383838;" width="0" height="0.296"/>
			<polygon style="fill:#383838;" points="35.619,54.503 35.588,54.522 35.619,54.503 			"/>
		</g>
		<polygon style="fill:#191919;" points="118.564,119.587 118.559,119.59 118.564,119.59 		"/>
		<polygon style="fill:#191919;" points="118.877,238.285 118.876,238.139 118.78,238.139 		"/>
		<polygon style="fill:#303030;" points="0,119.06 0,119.226 0.076,119.176 		"/>
		<polygon style="fill:#303030;" points="0.076,119.176 0,119.226 0.108,119.226 		"/>
		<polygon style="fill:#303030;" points="0.076,119.176 0,119.226 0.076,119.176 		"/>
		<polygon style="fill:#2C2C2C;" points="119.134,238.139 118.875,237.743 118.876,238.139 		"/>
		<polygon style="fill:#232323;" points="118.899,119.592 118.564,119.59 118.565,119.809 		"/>
		<polygon style="fill:#232323;" points="0.253,119.061 0,119.06 0.076,119.176 		"/>
		<polygon style="fill:#232323;" points="0.076,119.176 0.109,119.226 42.257,119.248 0.254,119.061 		"/>
		<rect x="0.165" y="119.013" style="fill:#232323;" width="0.001" height="0.211"/>
		<polygon style="fill:#232323;" points="0.076,119.176 0,119.06 0.076,119.176 		"/>
		<rect x="0.092" y="119.171" style="fill:#232323;" width="0.001" height="0.06"/>
		<rect x="0.076" y="119.176" style="fill:#232323;" width="0" height="0"/>
		<g>
			<polygon style="fill:#191919;" points="83.429,183.554 118.875,237.743 118.564,119.809 64.587,154.789 			"/>
			<polygon style="fill:#303030;" points="54.503,202.457 35.588,173.582 0.108,119.226 0,119.226 0,237.909 0.254,237.91 			"/>
			<polygon style="fill:#2C2C2C;" points="54.522,202.488 0.254,237.91 42.271,238.099 118.78,238.139 83.169,183.724 			"/>
			<polygon style="fill:#2C2C2C;" points="83.169,183.724 118.78,238.139 118.876,238.139 118.875,237.743 83.429,183.554 			"/>
			<polygon style="fill:#2C2C2C;" points="54.522,202.488 54.503,202.457 0.254,237.91 0.254,237.91 			"/>
			<polygon style="fill:#232323;" points="35.619,173.562 64.339,154.949 64.329,154.936 118.559,119.59 42.257,119.248 
				0.109,119.226 			"/>
			<polygon style="fill:#232323;" points="64.339,154.949 64.587,154.789 64.587,154.789 118.564,119.809 118.563,119.59 
				118.559,119.59 64.329,154.936 			"/>
			<polygon style="fill:#232323;" points="0.109,119.226 0.108,119.226 35.588,173.582 35.619,173.562 			"/>
			<polygon style="fill:#383838;" points="64.339,154.949 35.619,173.562 54.503,202.457 83.169,183.723 			"/>
			<polygon style="fill:#383838;" points="83.169,183.723 83.429,183.554 64.587,154.789 64.339,154.949 			"/>
			<polygon style="fill:#383838;" points="35.619,173.562 35.588,173.582 54.503,202.457 54.503,202.457 			"/>
			<polygon style="fill:#383838;" points="54.503,202.457 54.522,202.488 83.169,183.724 83.169,183.723 			"/>
			<polygon style="fill:#383838;" points="83.169,183.724 83.429,183.554 83.169,183.723 			"/>
			<polygon style="fill:#383838;" points="54.503,202.457 54.503,202.457 54.522,202.488 			"/>
			<rect x="49.979" y="147.144" style="fill:#383838;" width="0" height="34.223"/>
			<rect x="64.463" y="154.722" style="fill:#383838;" width="0" height="0.295"/>
			<polygon style="fill:#383838;" points="35.619,173.562 35.588,173.582 35.619,173.562 			"/>
		</g>
		<polygon style="fill:#191919;" points="118.877,357.136 118.876,356.99 118.78,356.988 		"/>
		<polygon style="fill:#191919;" points="118.564,238.437 118.559,238.44 118.564,238.44 		"/>
		<polygon style="fill:#303030;" points="0,237.909 0,238.076 0.076,238.027 		"/>
		<polygon style="fill:#303030;" points="0.076,238.027 0,238.076 0.108,238.076 		"/>
		<polygon style="fill:#303030;" points="0.076,238.027 0,238.076 0.076,238.027 		"/>
		<polygon style="fill:#2C2C2C;" points="119.134,356.99 118.875,356.594 118.876,356.99 		"/>
		<polygon style="fill:#232323;" points="118.899,238.442 118.564,238.44 118.565,238.659 		"/>
		<polygon style="fill:#232323;" points="0.254,237.91 0,237.909 0.076,238.027 		"/>
		<polygon style="fill:#232323;" points="0.076,238.027 0.109,238.076 42.272,238.099 0.254,237.91 		"/>
		<rect x="0.165" y="237.862" style="fill:#232323;" width="0" height="0.212"/>
		<polygon style="fill:#232323;" points="0.076,238.027 0,237.909 0.076,238.027 		"/>
		<rect x="0.092" y="238.022" style="fill:#232323;" width="0.001" height="0.06"/>
		<rect x="0.076" y="238.027" style="fill:#232323;" width="0" height="0"/>
		<g>
			<rect x="49.979" y="265.994" style="fill:none;" width="0" height="34.223"/>
			<polygon style="fill:#191919;" points="64.339,273.8 64.587,273.639 83.429,302.404 118.875,356.594 118.564,238.659 
				64.339,273.8 			"/>
			<polygon style="fill:#303030;" points="35.619,292.412 35.588,292.432 35.619,292.412 			"/>
			<polygon style="fill:#303030;" points="35.588,292.432 0.108,238.076 0,238.076 0,356.926 54.503,321.308 			"/>
			<polygon style="fill:#2C2C2C;" points="9.573,356.932 118.78,356.988 83.169,302.573 54.522,321.338 0,356.926 0.059,356.926 
				0.059,356.889 			"/>
			<polygon style="fill:#2C2C2C;" points="83.169,302.573 118.78,356.988 118.876,356.99 118.875,356.594 83.429,302.404 			"/>
			<polygon style="fill:#2C2C2C;" points="54.503,321.308 0,356.926 54.522,321.338 			"/>
			<polygon style="fill:#232323;" points="35.619,292.412 64.339,273.8 64.329,273.785 118.559,238.44 42.271,238.099 
				0.109,238.076 			"/>
			<polygon style="fill:#232323;" points="64.339,273.8 118.564,238.659 118.563,238.44 118.559,238.44 64.329,273.785 			"/>
			<polygon style="fill:#232323;" points="0.109,238.076 0.108,238.076 35.588,292.432 35.619,292.412 			"/>
			<polygon style="fill:#383838;" points="54.503,321.308 83.169,302.573 64.339,273.8 35.619,292.412 			"/>
			<polygon style="fill:#383838;" points="83.429,302.404 64.587,273.639 64.339,273.8 83.169,302.573 			"/>
			<polygon style="fill:#383838;" points="35.619,292.412 35.588,292.432 54.503,321.308 54.503,321.308 			"/>
			<polygon style="fill:#383838;" points="54.503,321.308 54.522,321.338 83.169,302.573 83.169,302.573 			"/>
			<polygon style="fill:#383838;" points="83.169,302.573 83.169,302.573 83.429,302.404 			"/>
			<polygon style="fill:#383838;" points="54.503,321.308 54.522,321.338 54.503,321.308 			"/>
		</g>
		<polygon style="fill:#191919;" points="118.622,357.416 118.617,357.419 118.622,357.419 		"/>
		<polygon style="fill:#191919;" points="118.934,475.573 118.932,474.823 118.443,474.823 		"/>
		<polygon style="fill:#191919;" points="118.936,476.116 118.935,475.969 118.839,475.968 		"/>
		<polygon style="fill:#303030;" points="0.059,356.889 0.059,356.926 0.083,356.926 		"/>
		<polygon style="fill:#2C2C2C;" points="1.607,475.08 1.607,475.906 2.872,475.907 		"/>
		<polygon style="fill:#2C2C2C;" points="1.607,475.08 2.874,475.907 118.839,475.968 118.091,474.824 		"/>
		<polygon style="fill:#2C2C2C;" points="119.192,475.969 118.934,475.573 118.935,475.969 		"/>
		<polygon style="fill:#2C2C2C;" points="2.872,475.907 2.874,475.907 1.607,475.08 		"/>
		<polygon style="fill:#2C2C2C;" points="118.091,474.824 118.839,475.968 118.935,475.969 118.934,475.573 118.443,474.823 		"/>
		<polygon style="fill:#232323;" points="118.958,357.421 118.622,357.419 118.623,357.639 		"/>
		<polygon style="fill:#232323;" points="0.083,356.926 9.573,356.932 0.059,356.889 		"/>
		<polygon style="fill:#232323;" points="0.059,356.889 0.083,356.926 0.083,356.926 		"/>
		<g>
			<polygon style="fill:#191919;" points="83.429,421.383 118.385,474.823 118.873,474.823 118.564,357.639 64.587,392.618 			"/>
			<polygon style="fill:#303030;" points="35.588,411.411 0.024,356.926 0,356.926 0,475.905 54.503,440.287 			"/>
			<polygon style="fill:#2C2C2C;" points="118.032,474.824 83.169,421.553 54.522,440.318 0,475.905 1.548,475.906 1.548,475.08 			
				"/>
			<polygon style="fill:#2C2C2C;" points="83.429,421.383 83.169,421.553 118.032,474.824 118.385,474.823 			"/>
			<polygon style="fill:#2C2C2C;" points="54.503,440.287 0,475.905 54.522,440.318 			"/>
			<polygon style="fill:#232323;" points="35.619,411.392 64.339,392.78 64.329,392.765 118.559,357.419 9.515,356.932 
				0.024,356.926 			"/>
			<polygon style="fill:#232323;" points="64.339,392.78 64.587,392.618 64.587,392.618 118.564,357.639 118.563,357.419 
				118.559,357.419 64.329,392.765 			"/>
			<polygon style="fill:#232323;" points="0.024,356.926 0.024,356.926 35.588,411.411 35.619,411.392 			"/>
			<polygon style="fill:#383838;" points="35.619,411.392 54.503,440.287 83.169,421.553 64.339,392.78 			"/>
			<polygon style="fill:#383838;" points="83.169,421.553 83.429,421.383 64.587,392.618 64.339,392.78 			"/>
			<polygon style="fill:#383838;" points="35.619,411.392 35.588,411.411 54.503,440.287 54.503,440.287 			"/>
			<polygon style="fill:#383838;" points="54.503,440.287 54.522,440.318 83.169,421.553 83.169,421.553 			"/>
			<polygon style="fill:#383838;" points="83.169,421.553 83.169,421.553 83.429,421.383 			"/>
			<polygon style="fill:#383838;" points="54.503,440.287 54.522,440.318 54.503,440.287 			"/>
			<rect x="49.979" y="384.974" style="fill:#383838;" width="0" height="34.223"/>
			<rect x="64.463" y="392.551" style="fill:#383838;" width="0" height="0.296"/>
			<polygon style="fill:#383838;" points="35.619,411.392 35.588,411.411 35.619,411.392 			"/>
		</g>
		<polygon style="fill:#191919;" points="237.756,0.528 237.751,0.53 237.756,0.53 		"/>
		<polygon style="fill:#191919;" points="183.531,35.891 183.779,35.73 202.621,64.494 238.068,118.684 237.757,0.749 
			183.531,35.891 		"/>
		<polygon style="fill:#191919;" points="238.069,119.226 238.069,119.079 237.974,119.079 		"/>
		<polygon style="fill:#303030;" points="173.695,83.398 154.78,54.523 119.192,0 119.192,118.954 119.287,118.955 		"/>
		<polygon style="fill:#303030;" points="154.812,54.502 154.78,54.523 154.812,54.502 		"/>
		<polygon style="fill:#2C2C2C;" points="238.069,119.079 238.326,119.08 238.068,118.684 		"/>
		<polygon style="fill:#2C2C2C;" points="173.716,83.429 119.287,118.955 134.948,119.026 237.974,119.079 202.362,64.664 		"/>
		<polygon style="fill:#2C2C2C;" points="202.621,64.494 202.362,64.664 237.974,119.079 238.069,119.079 238.068,118.684 		"/>
		<polygon style="fill:#2C2C2C;" points="119.287,118.955 119.287,118.955 173.716,83.429 173.695,83.398 		"/>
		<polygon style="fill:#232323;" points="183.531,35.891 183.523,35.876 237.751,0.53 119.192,0 154.812,54.502 		"/>
		<polygon style="fill:#232323;" points="238.092,0.532 237.756,0.53 237.757,0.749 		"/>
		<polygon style="fill:#232323;" points="183.531,35.891 237.757,0.749 237.756,0.53 237.751,0.53 183.523,35.876 		"/>
		<polygon style="fill:#232323;" points="154.812,54.502 119.192,0 154.78,54.523 		"/>
		<polygon style="fill:#383838;" points="173.695,83.398 202.361,64.663 183.531,35.891 154.812,54.502 		"/>
		<polygon style="fill:#383838;" points="183.531,35.891 202.361,64.663 202.621,64.494 183.779,35.73 		"/>
		<polygon style="fill:#383838;" points="154.812,54.502 154.78,54.523 173.695,83.398 173.695,83.398 		"/>
		<polygon style="fill:#383838;" points="173.695,83.398 173.716,83.429 202.362,64.664 202.361,64.663 		"/>
		<polygon style="fill:#383838;" points="202.362,64.664 202.621,64.494 202.361,64.663 		"/>
		<polygon style="fill:#383838;" points="173.695,83.398 173.716,83.429 173.695,83.398 		"/>
		<polygon style="fill:#191919;" points="238.069,238.181 238.069,238.034 237.974,238.034 		"/>
		<polygon style="fill:#191919;" points="183.531,154.845 183.779,154.685 202.621,183.449 238.068,237.639 237.757,119.704 
			183.531,154.845 		"/>
		<polygon style="fill:#191919;" points="237.756,119.483 237.751,119.486 237.756,119.486 		"/>
		<polygon style="fill:#303030;" points="173.695,202.353 154.78,173.478 119.233,119.017 119.192,119.017 119.192,237.805 
			119.446,237.806 		"/>
		<polygon style="fill:#303030;" points="154.812,173.457 154.812,173.457 154.78,173.478 		"/>
		<polygon style="fill:#303030;" points="119.192,118.954 119.192,119.017 119.221,118.998 		"/>
		<polygon style="fill:#303030;" points="119.221,118.998 119.192,119.017 119.233,119.017 		"/>
		<polygon style="fill:#303030;" points="119.221,118.998 119.192,119.017 119.221,118.998 		"/>
		<polygon style="fill:#2C2C2C;" points="173.716,202.384 119.446,237.806 161.469,237.994 237.974,238.034 202.362,183.618 		"/>
		<polygon style="fill:#2C2C2C;" points="238.326,238.034 238.068,237.639 238.069,238.034 		"/>
		<polygon style="fill:#2C2C2C;" points="202.362,183.618 237.974,238.034 238.069,238.034 238.068,237.639 202.621,183.449 		"/>
		<polygon style="fill:#2C2C2C;" points="119.446,237.806 119.446,237.806 173.716,202.384 173.695,202.353 		"/>
		<polygon style="fill:#232323;" points="238.092,119.487 237.756,119.486 237.757,119.704 		"/>
		<polygon style="fill:#232323;" points="154.812,173.457 183.531,154.845 183.523,154.831 237.751,119.486 134.948,119.026 
			119.233,119.017 		"/>
		<polygon style="fill:#232323;" points="119.287,118.955 119.192,118.954 119.221,118.998 		"/>
		<polygon style="fill:#232323;" points="119.221,118.998 119.233,119.017 134.948,119.026 119.287,118.955 		"/>
		<rect x="119.254" y="118.937" style="fill:#232323;" width="0" height="0.079"/>
		<polygon style="fill:#232323;" points="183.531,154.845 237.757,119.704 237.756,119.486 237.751,119.486 183.523,154.831 		"/>
		<polygon style="fill:#232323;" points="154.78,173.478 154.812,173.457 119.233,119.017 119.233,119.017 		"/>
		<polygon style="fill:#232323;" points="119.221,118.998 119.192,118.954 119.221,118.998 		"/>
		<rect x="119.227" y="118.996" style="fill:#232323;" width="0" height="0.022"/>
		<rect x="119.221" y="118.998" style="fill:#232323;" width="0" height="0"/>
		<polygon style="fill:#383838;" points="173.695,202.353 202.361,183.618 183.531,154.845 154.812,173.457 		"/>
		<polygon style="fill:#383838;" points="202.621,183.449 183.779,154.685 183.531,154.845 202.361,183.618 		"/>
		<polygon style="fill:#383838;" points="154.812,173.457 154.78,173.478 173.695,202.353 173.695,202.353 		"/>
		<polygon style="fill:#383838;" points="173.695,202.353 173.716,202.384 202.362,183.618 202.361,183.618 		"/>
		<polygon style="fill:#383838;" points="202.362,183.618 202.621,183.449 202.361,183.618 		"/>
		<polygon style="fill:#383838;" points="173.695,202.353 173.716,202.384 173.695,202.353 		"/>
		<polygon style="fill:#191919;" points="202.621,302.299 238.068,356.488 237.757,238.554 183.779,273.534 		"/>
		<polygon style="fill:#191919;" points="237.756,238.332 237.751,238.335 237.756,238.335 		"/>
		<polygon style="fill:#191919;" points="238.069,357.03 238.069,356.884 237.974,356.884 		"/>
		<polygon style="fill:#303030;" points="154.78,292.327 119.302,237.972 119.192,237.972 119.192,356.822 173.695,321.202 		"/>
		<polygon style="fill:#303030;" points="119.192,237.805 119.192,237.972 119.269,237.922 		"/>
		<polygon style="fill:#303030;" points="119.269,237.922 119.192,237.972 119.302,237.972 		"/>
		<polygon style="fill:#303030;" points="119.269,237.922 119.192,237.972 119.269,237.922 		"/>
		<polygon style="fill:#2C2C2C;" points="238.269,356.884 238.269,356.796 238.068,356.488 238.069,356.884 		"/>
		<polygon style="fill:#2C2C2C;" points="173.716,321.234 119.192,356.822 237.974,356.884 202.362,302.469 		"/>
		<polygon style="fill:#2C2C2C;" points="238.326,356.885 238.269,356.796 238.269,356.884 		"/>
		<polygon style="fill:#2C2C2C;" points="202.362,302.469 237.974,356.884 238.069,356.884 238.068,356.488 202.621,302.299 		"/>
		<polygon style="fill:#2C2C2C;" points="173.695,321.202 119.192,356.822 173.716,321.234 		"/>
		<polygon style="fill:#232323;" points="154.812,292.308 183.531,273.695 183.523,273.681 237.751,238.335 161.469,237.994 
			119.302,237.972 		"/>
		<polygon style="fill:#232323;" points="238.092,238.337 237.756,238.335 237.757,238.554 		"/>
		<polygon style="fill:#232323;" points="119.446,237.806 119.192,237.805 119.269,237.922 		"/>
		<polygon style="fill:#232323;" points="119.269,237.922 119.302,237.972 161.469,237.994 119.446,237.806 		"/>
		<rect x="119.358" y="237.758" style="fill:#232323;" width="0" height="0.212"/>
		<polygon style="fill:#232323;" points="183.531,273.695 183.779,273.534 183.779,273.534 237.757,238.554 237.756,238.335 
			237.751,238.335 183.523,273.681 		"/>
		<polygon style="fill:#232323;" points="154.78,292.327 154.812,292.308 119.302,237.972 119.302,237.972 		"/>
		<polygon style="fill:#232323;" points="119.269,237.922 119.192,237.805 119.269,237.922 		"/>
		<rect x="119.285" y="237.917" style="fill:#232323;" width="0" height="0.06"/>
		<rect x="119.269" y="237.922" style="fill:#232323;" width="0" height="0"/>
		<polygon style="fill:#383838;" points="202.361,302.469 183.531,273.695 154.812,292.308 173.695,321.202 		"/>
		<polygon style="fill:#383838;" points="202.361,302.469 202.621,302.299 183.779,273.534 183.531,273.695 		"/>
		<polygon style="fill:#383838;" points="154.812,292.308 154.78,292.327 173.695,321.202 173.695,321.202 		"/>
		<polygon style="fill:#383838;" points="173.695,321.202 173.716,321.234 202.362,302.469 202.361,302.469 		"/>
		<polygon style="fill:#383838;" points="202.362,302.469 202.621,302.299 202.361,302.469 		"/>
		<polygon style="fill:#383838;" points="173.695,321.202 173.716,321.234 173.695,321.202 		"/>
		<rect x="169.171" y="265.89" style="fill:#383838;" width="0" height="34.223"/>
		<rect x="183.655" y="273.467" style="fill:#383838;" width="0" height="0.296"/>
		<polygon style="fill:#383838;" points="154.812,292.308 154.812,292.308 154.78,292.327 		"/>
		<polygon style="fill:#191919;" points="356.89,0.528 356.886,0.53 356.89,0.53 		"/>
		<polygon style="fill:#191919;" points="321.756,64.494 357.202,118.684 356.891,0.749 302.914,35.73 		"/>
		<polygon style="fill:#191919;" points="357.203,119.226 357.203,119.079 357.108,119.079 		"/>
		<polygon style="fill:#303030;" points="292.829,83.399 273.914,54.523 238.326,0 238.326,118.85 238.58,118.851 		"/>
		<polygon style="fill:#2C2C2C;" points="292.85,83.429 238.58,118.851 280.599,119.039 357.108,119.079 321.496,64.664 		"/>
		<polygon style="fill:#2C2C2C;" points="357.202,118.684 357.203,119.079 357.461,119.08 		"/>
		<polygon style="fill:#2C2C2C;" points="321.756,64.494 321.496,64.664 357.108,119.079 357.203,119.079 357.202,118.684 		"/>
		<polygon style="fill:#2C2C2C;" points="238.58,118.851 238.58,118.851 292.85,83.429 292.829,83.399 		"/>
		<polygon style="fill:#232323;" points="302.666,35.891 302.656,35.876 356.886,0.53 238.326,0 273.945,54.503 		"/>
		<polygon style="fill:#232323;" points="357.227,0.532 356.89,0.53 356.891,0.749 		"/>
		<polygon style="fill:#232323;" points="302.666,35.891 302.914,35.73 302.914,35.73 356.891,0.749 356.89,0.53 356.886,0.53 
			302.656,35.876 		"/>
		<polygon style="fill:#232323;" points="273.945,54.503 238.326,0 273.914,54.523 		"/>
		<polygon style="fill:#383838;" points="292.829,83.398 321.496,64.664 302.666,35.891 273.945,54.503 		"/>
		<polygon style="fill:#383838;" points="302.666,35.891 321.496,64.664 321.756,64.494 302.914,35.73 		"/>
		<polygon style="fill:#383838;" points="273.945,54.503 273.914,54.523 292.829,83.399 292.829,83.398 		"/>
		<polygon style="fill:#383838;" points="292.829,83.398 292.85,83.429 321.496,64.664 321.496,64.664 		"/>
		<polygon style="fill:#383838;" points="321.496,64.664 321.756,64.494 321.496,64.664 		"/>
		<polygon style="fill:#383838;" points="292.829,83.399 292.85,83.429 292.829,83.398 		"/>
		<rect x="288.306" y="28.085" style="fill:#383838;" width="0" height="34.224"/>
		<rect x="302.79" y="35.662" style="fill:#383838;" width="0" height="0.296"/>
		<polygon style="fill:#383838;" points="273.945,54.503 273.914,54.523 273.945,54.503 		"/>
		<polygon style="fill:#191919;" points="476.025,0.528 476.02,0.53 476.025,0.53 		"/>
		<polygon style="fill:#191919;" points="476.337,119.226 476.337,119.079 476.241,119.079 		"/>
		<polygon style="fill:#191919;" points="440.89,64.494 476.336,118.684 476.025,0.749 422.048,35.73 		"/>
		<polygon style="fill:#303030;" points="393.049,54.523 357.461,0 357.461,119.017 411.963,83.398 		"/>
		<polygon style="fill:#2C2C2C;" points="476.336,118.684 476.337,119.079 476.595,119.08 		"/>
		<polygon style="fill:#2C2C2C;" points="411.983,83.429 357.461,119.017 476.241,119.079 440.63,64.664 		"/>
		<polygon style="fill:#2C2C2C;" points="440.89,64.494 440.63,64.664 476.241,119.079 476.337,119.079 476.336,118.684 		"/>
		<polygon style="fill:#2C2C2C;" points="411.963,83.398 357.461,119.017 411.983,83.429 		"/>
		<polygon style="fill:#232323;" points="421.8,35.891 421.79,35.876 476.02,0.53 357.461,0 393.079,54.502 		"/>
		<polygon style="fill:#232323;" points="476.361,0.532 476.025,0.53 476.025,0.749 		"/>
		<polygon style="fill:#232323;" points="421.8,35.891 422.048,35.73 422.048,35.73 476.025,0.749 476.025,0.53 476.02,0.53 
			421.79,35.876 		"/>
		<polygon style="fill:#232323;" points="393.079,54.502 357.461,0 393.049,54.523 		"/>
		<polygon style="fill:#383838;" points="411.963,83.398 440.63,64.664 421.8,35.891 393.079,54.502 		"/>
		<polygon style="fill:#383838;" points="421.8,35.891 440.63,64.664 440.89,64.494 422.048,35.73 		"/>
		<polygon style="fill:#383838;" points="393.079,54.502 393.049,54.523 411.963,83.398 411.963,83.398 		"/>
		<polygon style="fill:#383838;" points="411.963,83.398 411.983,83.429 440.63,64.664 440.63,64.664 		"/>
		<polygon style="fill:#383838;" points="440.63,64.664 440.89,64.494 440.63,64.664 		"/>
		<polygon style="fill:#383838;" points="411.963,83.398 411.983,83.429 411.963,83.398 		"/>
		<rect x="407.44" y="28.085" style="fill:#383838;" width="0" height="34.224"/>
		<rect x="421.924" y="35.662" style="fill:#383838;" width="0" height="0.296"/>
		<polygon style="fill:#383838;" points="393.079,54.502 393.049,54.523 393.079,54.502 		"/>
		<polygon style="fill:#191919;" points="302.666,154.74 302.914,154.58 321.756,183.344 357.202,237.534 356.891,119.6 
			302.666,154.74 		"/>
		<polygon style="fill:#191919;" points="356.89,119.377 356.886,119.381 356.89,119.381 		"/>
		<polygon style="fill:#191919;" points="357.203,238.076 357.203,237.93 357.108,237.93 		"/>
		<polygon style="fill:#303030;" points="273.914,173.373 238.436,119.017 238.326,119.017 238.326,119.08 238.326,237.866 
			292.829,202.248 		"/>
		<polygon style="fill:#303030;" points="273.945,173.353 273.945,173.353 273.914,173.373 		"/>
		<polygon style="fill:#303030;" points="238.326,118.85 238.326,119.017 238.403,118.967 		"/>
		<polygon style="fill:#303030;" points="238.403,118.967 238.326,119.017 238.436,119.017 		"/>
		<polygon style="fill:#303030;" points="238.403,118.967 238.326,119.017 238.403,118.967 		"/>
		<polygon style="fill:#2C2C2C;" points="357.461,237.93 357.202,237.534 357.203,237.93 		"/>
		<polygon style="fill:#2C2C2C;" points="292.85,202.279 238.326,237.866 357.108,237.93 321.496,183.514 		"/>
		<polygon style="fill:#2C2C2C;" points="321.496,183.514 357.108,237.93 357.203,237.93 357.202,237.534 321.756,183.344 		"/>
		<polygon style="fill:#2C2C2C;" points="292.829,202.248 238.326,237.866 292.85,202.279 		"/>
		<polygon style="fill:#232323;" points="357.227,119.382 356.89,119.381 356.891,119.6 		"/>
		<polygon style="fill:#232323;" points="273.945,173.353 302.666,154.74 302.656,154.726 356.886,119.381 280.599,119.039 
			238.436,119.017 		"/>
		<polygon style="fill:#232323;" points="238.58,118.851 238.326,118.85 238.403,118.967 		"/>
		<polygon style="fill:#232323;" points="238.403,118.967 238.436,119.017 280.599,119.039 238.58,118.851 		"/>
		<rect x="238.492" y="118.803" style="fill:#232323;" width="0" height="0.212"/>
		<polygon style="fill:#232323;" points="302.666,154.74 356.891,119.6 356.89,119.381 356.886,119.381 302.656,154.726 		"/>
		<polygon style="fill:#232323;" points="273.914,173.373 273.945,173.353 238.436,119.017 238.436,119.017 		"/>
		<polygon style="fill:#232323;" points="238.403,118.967 238.326,118.85 238.403,118.967 		"/>
		<rect x="238.42" y="118.962" style="fill:#232323;" width="0" height="0.059"/>
		<rect x="238.403" y="118.967" style="fill:#232323;" width="0" height="0"/>
		<polygon style="fill:#383838;" points="292.829,202.248 321.496,183.514 302.666,154.74 273.945,173.353 		"/>
		<polygon style="fill:#383838;" points="321.756,183.344 302.914,154.58 302.666,154.74 321.496,183.514 		"/>
		<polygon style="fill:#383838;" points="273.945,173.353 273.914,173.373 292.829,202.248 292.829,202.248 		"/>
		<polygon style="fill:#383838;" points="292.829,202.248 292.85,202.279 321.496,183.514 321.496,183.514 		"/>
		<polygon style="fill:#383838;" points="321.496,183.514 321.756,183.344 321.496,183.514 		"/>
		<polygon style="fill:#383838;" points="292.829,202.248 292.85,202.279 292.829,202.248 		"/>
		<polygon style="fill:#191919;" points="899.742,599.673 899.742,599.526 899.646,599.526 		"/>
		<polygon style="fill:#191919;" points="899.32,481.096 845.374,516.056 864.243,544.862 899.741,599.13 899.43,481.096 		"/>
		<polygon style="fill:#191919;" points="899.429,480.803 899.424,480.807 899.429,480.807 		"/>
		<polygon style="fill:#191919;" points="899.32,481.096 899.43,481.096 899.429,481.026 		"/>
		<polygon style="fill:#303030;" points="780.694,480.275 780.694,480.833 780.877,480.554 		"/>
		<polygon style="fill:#303030;" points="816.334,534.876 781.399,481.355 781.194,481.356 781.194,599.136 835.276,563.793 		"/>
		<polygon style="fill:#303030;" points="780.694,599.139 780.694,599.463 781.193,599.138 		"/>
		<polygon style="fill:#303030;" points="781.193,599.137 781.194,599.136 781.194,481.356 780.814,481.356 781.107,480.905 
			780.877,480.554 780.694,480.833 780.694,598.811 		"/>
		<polygon style="fill:#303030;" points="781.193,599.137 780.694,598.811 780.694,599.139 781.193,599.138 		"/>
		<rect x="780.944" y="598.676" style="fill:#303030;" width="0" height="0.596"/>
		<polygon style="fill:#303030;" points="781.194,481.041 781.194,481.356 781.399,481.355 		"/>
		<polygon style="fill:#303030;" points="781.107,480.905 780.814,481.356 781.194,481.356 781.194,481.041 		"/>
		<polygon style="fill:#2C2C2C;" points="900,599.526 899.741,599.13 899.742,599.526 		"/>
		<polygon style="fill:#2C2C2C;" points="835.296,563.823 781.194,599.137 781.194,599.138 781.193,599.138 780.694,599.463 
			899.646,599.526 863.984,545.032 		"/>
		<polygon style="fill:#2C2C2C;" points="781.194,599.138 781.194,599.137 781.194,599.137 		"/>
		<polygon style="fill:#2C2C2C;" points="781.193,599.138 781.194,599.138 781.194,599.137 		"/>
		<polygon style="fill:#2C2C2C;" points="781.194,599.137 781.194,599.138 781.194,599.137 		"/>
		<polygon style="fill:#2C2C2C;" points="863.984,545.032 899.646,599.526 899.742,599.526 899.741,599.13 864.243,544.862 		"/>
		<polygon style="fill:#2C2C2C;" points="781.193,599.138 780.694,599.463 781.193,599.138 		"/>
		<polygon style="fill:#2C2C2C;" points="781.194,599.136 781.194,599.137 835.296,563.823 835.276,563.793 		"/>
		<rect x="781.194" y="599.136" style="fill:#2C2C2C;" width="0.001" height="0.001"/>
		
			<rect x="781.193" y="599.137" transform="matrix(0.7071 -0.7071 0.7071 0.7071 -194.8479 727.8705)" style="fill:#2C2C2C;" width="0.001" height="0.001"/>
		<rect x="781.193" y="599.137" style="fill:#2C2C2C;" width="0.001" height="0"/>
		<polygon style="fill:#232323;" points="781.059,480.277 780.694,480.275 780.877,480.554 		"/>
		<polygon style="fill:#232323;" points="845.126,516.217 845.117,516.202 898.978,481.097 781.401,481.355 816.364,534.856 		"/>
		<polygon style="fill:#232323;" points="781.516,480.279 781.194,480.278 781.194,480.771 		"/>
		<polygon style="fill:#232323;" points="781.107,480.905 781.194,480.771 781.194,480.278 781.059,480.277 780.877,480.554 		"/>
		<polygon style="fill:#232323;" points="899.765,480.808 899.56,480.807 899.663,480.874 		"/>
		<polygon style="fill:#232323;" points="781.194,481.04 781.401,481.355 898.978,481.097 899.424,480.807 781.516,480.279 
			781.194,480.771 		"/>
		<polygon style="fill:#232323;" points="899.663,480.874 899.559,480.807 899.429,480.807 899.429,481.026 		"/>
		<polygon style="fill:#232323;" points="781.194,480.771 781.107,480.905 781.194,481.04 		"/>
		
			<rect x="899.611" y="480.779" transform="matrix(0.547 -0.8371 0.8371 0.547 5.0044 970.9289)" style="fill:#232323;" width="0" height="0.123"/>
		<polygon style="fill:#232323;" points="845.117,516.202 845.126,516.217 845.374,516.056 845.374,516.056 899.32,481.096 
			898.978,481.097 		"/>
		<polygon style="fill:#232323;" points="899.429,480.807 899.424,480.807 898.978,481.097 899.32,481.096 899.429,481.026 		"/>
		<polygon style="fill:#232323;" points="816.334,534.876 816.364,534.856 781.401,481.355 781.399,481.355 		"/>
		<polygon style="fill:#232323;" points="780.877,480.554 780.694,480.275 780.877,480.554 		"/>
		<rect x="780.992" y="480.52" style="fill:#232323;" width="0" height="0.42"/>
		<rect x="781.297" y="481.01" style="fill:#232323;" width="0.001" height="0.375"/>
		
			<rect x="781.15" y="480.892" transform="matrix(0.8376 -0.5462 0.5462 0.8376 -135.8912 504.76)" style="fill:#232323;" width="0" height="0.161"/>
		<polygon style="fill:#383838;" points="835.276,563.793 863.984,545.031 845.126,516.217 816.364,534.856 		"/>
		<polygon style="fill:#383838;" points="863.984,545.031 864.243,544.862 845.374,516.056 845.126,516.217 		"/>
		<polygon style="fill:#383838;" points="816.334,534.876 835.276,563.793 835.276,563.793 816.364,534.856 		"/>
		<polygon style="fill:#383838;" points="835.276,563.793 835.296,563.823 863.984,545.032 863.984,545.031 		"/>
		<polygon style="fill:#383838;" points="863.984,545.032 864.243,544.862 863.984,545.031 		"/>
		<polygon style="fill:#383838;" points="835.276,563.793 835.296,563.823 835.276,563.793 		"/>
		
			<rect x="813.609" y="525.536" transform="matrix(0.8392 -0.5438 0.5438 0.8392 -152.2148 536.2939)" style="fill:#383838;" width="34.273" height="0"/>
		<rect x="845.25" y="515.989" style="fill:#383838;" width="0" height="0.296"/>
		<polygon style="fill:#383838;" points="816.364,534.856 816.334,534.876 816.364,534.856 		"/>
	</g>
</g>
</svg>
